<svg xmlns="http://www.w3.org/2000/svg" viewBox="0 0 375 488">
	<switch>
		<g>
			<linearGradient id="prefix__a" x1="166.029" x2="375.017" y1="150.369" y2="150.369"
				gradientUnits="userSpaceOnUse">
				<stop offset=".229" stop-color="#9e9e9e" />
				<stop offset=".251" stop-color="#89a0a9" />
				<stop offset=".296" stop-color="#65a4bd" />
				<stop offset=".344" stop-color="#45a7cd" />
				<stop offset=".397" stop-color="#2caadb" />
				<stop offset=".455" stop-color="#18ace5" />
				<stop offset=".522" stop-color="#0aadec" />
				<stop offset=".605" stop-color="#02aef1" />
				<stop offset=".754" stop-color="#00aef2" />
			</linearGradient>
			<path fill="url(#prefix__a)"
				d="M213.4 120.6c0 30.7.2 61.3-.2 92-.1 7.7 2.6 10.7 9.9 10.8 5.1.1 10.3 1.6 15.4 1.3 12.9-.7 20.2 8.7 28.2 15.9 9.6 8.7 18.3 7 28 1.4 55.1-33.5 43.1-122.9-25.3-130.6-11.3-1.5-22.6-1-33.9-.9-3.1 0-3.6-.6-3.6-3.8.4-13.5.7-27 .3-40.5-.1-5.2.4-6.6 6.3-6.5 19.5.2 38.5 1.1 57.4 7.1 38 12.2 73.9 55.6 78 95.1 3.5 33.1-2.1 63.9-23.1 90.5-36.8 46.2-64.7 47.2-120 48.1-2.7.1-3.3-1.2-3.8-3.4-8.3-33.7-28.8-58.4-57.2-77.3-2.6-1.7-4-3.6-4-6.8.2-62.3.3-124.6.6-187 0-10.4 10.3-24.4 18.9-25.9 9.2-1.6 17.6.8 23.1 9.1 3.5 5.3 4.4 11.4 4.5 17.6.1 31.2.1 62.3.1 93.5.2.3.3.3.4.3z" />
			<linearGradient id="prefix__b" x1="110.651" x2="110.651" y1="487.951" y2="59.933"
				gradientUnits="userSpaceOnUse">
				<stop offset=".246" stop-color="#26313b" />
				<stop offset=".319" stop-color="#343e47" />
				<stop offset=".46" stop-color="#5a6166" />
				<stop offset=".651" stop-color="#979898" />
				<stop offset=".67" stop-color="#9e9e9e" />
			</linearGradient>
			<path fill="url(#prefix__b)"
				d="M165.2 395.7c-1.3-19.7 3-43.2-1.3-66.3-6.7-36-28.7-56.5-65.3-61.8-21-3-40.7-9.5-57.7-23.5-28-23.1-37-53.2-33.6-87.8 4.7-52.2 51.2-91.8 102.5-94.6 10.8-.9 21.6-1 32.4-1.8 3.5-.3 4 .8 3.9 4-.2 14.5-.2 29 0 43.5.1 3.7-1.5 3.3-4 3.4-18.3.3-36.7-2.6-54.7 4.3-31.6 12.1-53.2 62.1-17.8 91.7 13.2 11.1 29.6 12.6 45.5 15.1 50.6 7.8 89 45.8 96.1 97.2 5 35.8 2.1 71.9 2.7 107.8.2 12.8 1.8 25.6-.6 38.4-2.3 12.9-14 23.6-23.9 22.6-12.5-1.3-24.2-14.4-24.2-27.7-.1-20.3 0-40.6 0-64.5z" />
			<path fill="#26313B"
				d="M146.2 391.2c-.6 22.4 3.5 27.5-21.9 25.6-90.1-.7-136.5-74-121.5-159 1.2-6.7 1.9-13.4 2.9-20.2.2-1.1.7-2.2 1-3.3.9.6 2.1.9 2.8 1.7 11.4 12.9 23.7 24.7 38.9 33 2.3 1.2 1.7 3.4 1.7 5.3.3 20.6-1.2 41.4 9.3 60.4 11.1 20.3 28.3 30.7 51.4 31.1 10.3.2 20.7.1 31-.3 3.8-.1 4.8.9 4.6 4.7-.4 7-.2 14-.2 21z" />
		</g>
	</switch>
</svg>